<svg width="111" height="88" viewBox="0 0 111 88" fill="none" xmlns="http://www.w3.org/2000/svg">
<path d="M55.9445 3.26525e-05C55.6057 0.000157494 55.2827 0.0140743 55.0042 0.0489258C54.6328 0.0954292 54.3324 0.0541257 54.1795 0.0666099C53.8707 0.0899136 53.894 0.101782 55.0827 0.404782C59.3071 1.48271 63.2288 3.40572 66.5559 6.03359C67.4823 6.76776 69.3991 8.66713 70.3197 9.76837L70.9901 10.5727H71.0245L71.6949 9.76837C72.6156 8.66713 74.5323 6.76776 75.4588 6.03359C78.7859 3.40572 82.7076 1.48271 86.932 0.404782C88.1206 0.101792 88.144 0.0899344 87.8352 0.0666099C87.6822 0.0529814 87.3818 0.0952211 87.0105 0.0489258C85.8963 -0.0903451 84.0706 0.105945 83.3714 0.171508C80.4405 0.445368 78.0986 0.969919 75.8028 1.87305C74.0956 2.54314 72.2601 3.59227 71.153 4.52455L71.0073 4.64821L70.8616 4.52455C69.7546 3.59227 67.9191 2.54314 66.2118 1.87305C63.9161 0.969919 61.5736 0.445368 58.6428 0.171508C58.1184 0.1223 56.9607 -0.000352275 55.9445 3.26525e-05ZM36.1474 7.26963C34.4175 7.26963 32.873 7.57097 31.5137 8.17336C30.1545 8.77575 29.0847 9.61375 28.3047 10.6872C27.5324 11.7607 27.1507 13.0157 27.158 14.4521C27.1507 16.2053 27.7253 17.5994 28.8837 18.6342C30.0422 19.6691 31.6215 20.4293 33.6217 20.9159L36.2055 21.5648C37.0704 21.7733 37.8 22.0051 38.3946 22.2599C38.997 22.5148 39.4529 22.8238 39.7618 23.1867C40.0784 23.5497 40.2365 23.9973 40.2365 24.5302C40.2365 25.1017 40.0631 25.6077 39.7155 26.0479C39.368 26.4881 38.8774 26.8319 38.2441 27.0791C37.6185 27.3262 36.8808 27.45 36.0313 27.45C35.1663 27.45 34.3902 27.3185 33.7029 27.0559C33.0233 26.7856 32.4789 26.3876 32.0696 25.8624C31.668 25.3296 31.4404 24.6655 31.3863 23.87H26.5322C26.5708 25.5768 26.9842 27.0098 27.7719 28.1683C28.5674 29.319 29.6714 30.1877 31.0847 30.7746C32.5057 31.3616 34.174 31.6547 36.0893 31.6547C38.0201 31.6547 39.6689 31.3651 41.0359 30.7859C42.4106 30.1989 43.4609 29.3768 44.1869 28.3188C44.9206 27.253 45.2919 25.994 45.2992 24.5421C45.2919 23.5535 45.1098 22.6772 44.7546 21.9126C44.4071 21.148 43.9164 20.4835 43.2831 19.9197C42.6499 19.3559 41.9009 18.8811 41.0359 18.495C40.1709 18.1088 39.2209 17.7998 38.186 17.5681L36.0549 17.0585C35.5375 16.9426 35.0504 16.8035 34.5948 16.6413C34.1391 16.4714 33.7375 16.2744 33.39 16.0505C33.0425 15.8188 32.7688 15.5446 32.568 15.2279C32.3749 14.9113 32.2858 14.5409 32.3013 14.1161C32.3013 13.6064 32.4482 13.1506 32.7416 12.749C33.0428 12.3474 33.4751 12.0348 34.0389 11.8109C34.6027 11.5792 35.2938 11.463 36.1125 11.463C37.3172 11.463 38.2714 11.7219 38.9742 12.2393C39.677 12.7568 40.0744 13.4827 40.1671 14.4172H44.9745C44.9513 13.0039 44.5733 11.7607 43.8396 10.6872C43.1059 9.61375 42.0786 8.77575 40.758 8.17336C39.4451 7.57097 37.9082 7.26963 36.1474 7.26963ZM75.316 36.0006C73.586 36.0006 72.0416 36.3019 70.6823 36.9043C69.3231 37.5067 68.2533 38.3447 67.4733 39.4182C66.701 40.4917 66.3193 41.7466 66.3266 43.1831C66.3193 44.9362 66.8938 46.3303 68.0523 47.3652C69.2108 48.4001 70.7901 49.1603 72.7903 49.6468L75.3741 50.2957C76.239 50.5043 76.9685 50.736 77.5632 50.9909C78.1656 51.2457 78.6215 51.5547 78.9304 51.9177C79.247 52.2807 79.4051 52.7283 79.4051 53.2612C79.4051 53.8327 79.2317 54.3387 78.8841 54.7789C78.5366 55.2191 78.046 55.5629 77.4127 55.81C76.7871 56.0572 76.0494 56.181 75.1999 56.181C74.3349 56.181 73.5588 56.0495 72.8715 55.7869C72.1919 55.5166 71.6475 55.1186 71.2382 54.5934C70.8366 54.0605 70.6089 53.3965 70.5549 52.601H65.7008C65.7394 54.3078 66.1528 55.7408 66.9405 56.8992C67.736 58.05 68.84 58.9186 70.2533 59.5056C71.6743 60.0925 73.3426 60.3857 75.2579 60.3857C77.1887 60.3857 78.8375 60.0961 80.2045 59.5169C81.5792 58.9299 82.6295 58.1078 83.3555 57.0498C84.0892 55.984 84.4605 54.7249 84.4678 53.273C84.4605 52.2845 84.2784 51.4082 83.9232 50.6436C83.5756 49.879 83.085 49.2144 82.4517 48.6506C81.8185 48.0869 81.0695 47.6121 80.2045 47.226C79.3395 46.8398 78.3895 46.5308 77.3546 46.2991L75.2235 45.7895C74.7061 45.6736 74.219 45.5345 73.7634 45.3723C73.3077 45.2024 72.9061 45.0054 72.5586 44.7814C72.211 44.5497 71.9374 44.2755 71.7366 43.9589C71.5435 43.6422 71.4544 43.2719 71.4699 42.8471C71.4699 42.3374 71.6167 41.8815 71.9102 41.48C72.2114 41.0784 72.6437 40.7658 73.2075 40.5418C73.7712 40.3101 74.4624 40.194 75.281 40.194C76.4858 40.194 77.44 40.4529 78.1428 40.9703C78.8456 41.4877 79.243 42.2137 79.3357 43.1482H84.1431C84.1199 41.7349 83.7418 40.4917 83.0082 39.4182C82.2745 38.3447 81.2472 37.5067 79.9266 36.9043C78.6137 36.3019 77.0768 36.0006 75.316 36.0006ZM48.6587 7.59382V12.9014H53.6747V7.59382H48.6587ZM57.8105 7.59382V18.7383H62.6759L62.6055 14.0613H62.8022L69.2117 20.8089H72.525L78.3952 14.1194H78.5919L78.6624 31.3192H83.5278V7.59382H77.342L71.0073 14.686H70.7293L63.9963 7.59382H57.8105ZM27.5284 36.7254V60.4508H32.5443V52.7586H36.7614C38.584 52.7586 40.1361 52.4225 41.4182 51.7506C42.7079 51.0787 43.6927 50.1404 44.3723 48.9357C45.052 47.7309 45.3916 46.3409 45.3916 44.7654C45.3916 43.1899 45.0561 41.7994 44.3842 40.5946C43.72 39.3821 42.7546 38.4361 41.488 37.7565C40.2215 37.0692 38.6882 36.7254 36.8888 36.7254H27.5284ZM48.6587 15.4957V52.1328C48.6587 53.8628 49.068 55.3766 49.8866 56.674C52.7657 61.2371 58.4331 61.4028 61.4167 56.674C62.2431 55.3766 62.6559 53.8628 62.6559 52.1328V21.5597H57.64V51.7044C57.64 52.6079 57.4389 53.4111 57.0373 54.1139C56.6434 54.8167 56.0838 55.3687 55.3578 55.7703C54.578 56.2063 56.8799 56.281 55.9568 55.7703C55.2309 55.3687 54.6671 54.8167 54.2655 54.1139C53.8716 53.4111 53.6747 52.6079 53.6747 51.7044V15.4957H48.6587ZM32.5443 40.8263H35.927C36.9001 40.8263 37.7033 40.9926 38.3366 41.3247C38.9698 41.649 39.441 42.1084 39.7499 42.7031C40.0666 43.2901 40.2252 43.9776 40.2252 44.7654C40.2252 45.5454 40.0666 46.2366 39.7499 46.839C39.441 47.4336 38.9698 47.9007 38.3366 48.2405C37.711 48.5726 36.916 48.7389 35.9506 48.7389H32.5443V40.8263Z" fill="#2B3D89"/>
<path d="M36.1474 7.26965C34.4175 7.26965 32.873 7.57099 31.5137 8.17338C30.1545 8.77577 29.0847 9.61377 28.3047 10.6873C27.5324 11.7608 27.1507 13.0157 27.158 14.4522C27.1507 16.2053 27.7253 17.5994 28.8837 18.6343C30.0422 19.6691 31.6215 20.4293 33.6217 20.9159L36.2055 21.5648C37.0704 21.7733 37.8 22.0051 38.3946 22.2599C38.997 22.5148 39.4529 22.8238 39.7618 23.1868C40.0784 23.5497 40.2365 23.9974 40.2365 24.5303C40.2365 25.1017 40.0631 25.6077 39.7155 26.0479C39.368 26.4881 38.8774 26.8319 38.2441 27.0791C37.6185 27.3262 36.8808 27.45 36.0313 27.45C35.1663 27.45 34.3902 27.3185 33.7029 27.056C33.0232 26.7857 32.4789 26.3876 32.0696 25.8625C31.668 25.3296 31.4404 24.6655 31.3863 23.8701H26.5322C26.5708 25.5768 26.9842 27.0098 27.7719 28.1683C28.5674 29.319 29.6714 30.1877 31.0847 30.7746C32.5057 31.3616 34.174 31.6547 36.0893 31.6547C38.0201 31.6547 39.6689 31.3651 41.0359 30.7859C42.4106 30.199 43.4609 29.3769 44.1869 28.3188C44.9206 27.253 45.2919 25.994 45.2992 24.5421C45.2919 23.5535 45.1098 22.6772 44.7546 21.9126C44.4071 21.1481 43.9164 20.4835 43.2831 19.9197C42.6498 19.3559 41.9009 18.8812 41.0359 18.495C40.1709 18.1089 39.2209 17.7999 38.186 17.5682L36.0549 17.0585C35.5375 16.9427 35.0504 16.8035 34.5948 16.6413C34.1391 16.4714 33.7375 16.2744 33.39 16.0505C33.0425 15.8188 32.7688 15.5446 32.568 15.2279C32.3749 14.9113 32.2858 14.5409 32.3013 14.1162C32.3013 13.6064 32.4482 13.1506 32.7416 12.749C33.0428 12.3474 33.4751 12.0348 34.0389 11.8109C34.6027 11.5792 35.2938 11.463 36.1125 11.463C37.3172 11.463 38.2714 11.7219 38.9742 12.2394C39.677 12.7568 40.0744 13.4827 40.1671 14.4172H44.9745C44.9513 13.0039 44.5732 11.7608 43.8396 10.6873C43.1059 9.61377 42.0786 8.77577 40.758 8.17338C39.4451 7.57099 37.9082 7.26965 36.1474 7.26965ZM75.316 36.0006C73.586 36.0006 72.0415 36.302 70.6823 36.9044C69.3231 37.5067 68.2533 38.3447 67.4733 39.4182C66.701 40.4917 66.3193 41.7467 66.3266 43.1831C66.3193 44.9363 66.8938 46.3304 68.0523 47.3652C69.2107 48.4001 70.79 49.1603 72.7903 49.6469L75.3741 50.2958C76.239 50.5043 76.9685 50.736 77.5632 50.9909C78.1656 51.2458 78.6214 51.5548 78.9304 51.9177C79.247 52.2807 79.4051 52.7283 79.4051 53.2612C79.4051 53.8327 79.2317 54.3387 78.8841 54.7789C78.5366 55.2191 78.046 55.5629 77.4127 55.8101C76.7871 56.0572 76.0494 56.181 75.1999 56.181C74.3349 56.181 73.5588 56.0495 72.8715 55.7869C72.1918 55.5166 71.6475 55.1186 71.2382 54.5934C70.8366 54.0606 70.6089 53.3965 70.5549 52.601H65.7008C65.7394 54.3078 66.1528 55.7408 66.9405 56.8993C67.736 58.05 68.84 58.9187 70.2533 59.5056C71.6743 60.0926 73.3426 60.3857 75.2579 60.3857C77.1887 60.3857 78.8375 60.0961 80.2045 59.5169C81.5792 58.9299 82.6295 58.1078 83.3555 57.0498C84.0892 55.984 84.4605 54.725 84.4678 53.2731C84.4605 52.2845 84.2784 51.4082 83.9232 50.6436C83.5756 49.879 83.085 49.2145 82.4517 48.6507C81.8185 48.0869 81.0695 47.6121 80.2045 47.226C79.3395 46.8398 78.3895 46.5308 77.3546 46.2991L75.2235 45.7895C74.7061 45.6736 74.219 45.5345 73.7634 45.3723C73.3077 45.2024 72.9061 45.0054 72.5586 44.7815C72.211 44.5498 71.9374 44.2755 71.7366 43.9589C71.5435 43.6423 71.4544 43.2719 71.4699 42.8471C71.4699 42.3374 71.6167 41.8816 71.9102 41.48C72.2114 41.0784 72.6437 40.7658 73.2075 40.5419C73.7712 40.3102 74.4624 40.194 75.281 40.194C76.4858 40.194 77.44 40.4529 78.1428 40.9703C78.8456 41.4878 79.243 42.2137 79.3357 43.1482H84.1431C84.1199 41.7349 83.7418 40.4917 83.0082 39.4182C82.2745 38.3447 81.2472 37.5067 79.9266 36.9044C78.6137 36.302 77.0768 36.0006 75.316 36.0006ZM27.5284 36.7254V60.4508H32.5443V52.7586H36.7614C38.584 52.7586 40.1361 52.4225 41.4181 51.7506C42.7079 51.0787 43.6927 50.1405 44.3723 48.9357C45.052 47.7309 45.3916 46.3409 45.3916 44.7654C45.3916 43.1899 45.0561 41.7994 44.3842 40.5946C43.72 39.3821 42.7546 38.4362 41.488 37.7565C40.2215 37.0692 38.6882 36.7254 36.8888 36.7254H27.5284ZM32.5443 40.8263H35.927C36.9001 40.8263 37.7033 40.9926 38.3366 41.3247C38.9698 41.6491 39.441 42.1085 39.7499 42.7031C40.0666 43.2901 40.2252 43.9777 40.2252 44.7654C40.2252 45.5454 40.0666 46.2366 39.7499 46.839C39.441 47.4337 38.9698 47.9007 38.3366 48.2405C37.711 48.5726 36.916 48.7389 35.9506 48.7389H32.5443V40.8263Z" fill="#E6212A"/>
<path d="M3.34424 85.2006C2.44369 85.2006 1.79262 84.9119 1.39103 84.3344C1.00161 83.757 0.806915 82.798 0.806915 81.4576V79.8026C0.806915 79.019 0.873837 78.3436 1.00769 77.7765C1.14156 77.2093 1.38494 76.771 1.73786 76.4617C2.10294 76.142 2.62014 75.9822 3.28946 75.9822C3.70322 75.9822 4.06222 76.0648 4.36645 76.2297C4.68287 76.3844 4.94451 76.5596 5.15139 76.7556V72.5331H6.48394V85.0614H5.15139V84.4273C4.94451 84.6232 4.68897 84.8036 4.38473 84.9686C4.09266 85.1232 3.74583 85.2006 3.34424 85.2006ZM3.61807 84.3035C3.91013 84.3035 4.18395 84.2468 4.43951 84.1334C4.70724 84.02 4.94451 83.8807 5.15139 83.7157V77.498C4.96885 77.3536 4.74373 77.2144 4.47601 77.0804C4.20828 76.936 3.91015 76.8639 3.58157 76.8639C2.99744 76.8639 2.60801 77.0856 2.41329 77.529C2.23075 77.962 2.13946 78.5962 2.13946 79.4314V81.5504C2.13946 82.1484 2.17597 82.6537 2.24902 83.0661C2.33422 83.4786 2.48027 83.788 2.68712 83.9942C2.90618 84.2004 3.21647 84.3035 3.61807 84.3035ZM8.69271 85.0614V76.1214H10.0253V85.0614H8.69271ZM8.69271 74.8841V73.3529H10.0253V74.8841H8.69271ZM14.9722 88.0001C14.2785 88.0001 13.67 87.9434 13.1467 87.83C12.6356 87.7165 12.2401 87.5362 11.9602 87.2887C11.6925 87.0515 11.5586 86.7473 11.5586 86.3761C11.5586 86.0667 11.656 85.778 11.8507 85.5099C12.0454 85.2522 12.2888 85.0253 12.5809 84.8294C12.873 84.6335 13.1711 84.4788 13.4753 84.3653L14.2055 84.5045C14.023 84.6076 13.81 84.7366 13.5666 84.8912C13.3354 85.0459 13.1346 85.2212 12.9642 85.4171C12.806 85.613 12.7269 85.8347 12.7269 86.0822C12.7269 86.4328 12.9155 86.6855 13.2928 86.8401C13.6701 87.0051 14.2481 87.0875 15.0269 87.0875C15.7449 87.0875 16.3169 86.9948 16.7428 86.8092C17.1809 86.6339 17.4 86.3452 17.4 85.943C17.4 85.7368 17.3452 85.5563 17.2357 85.4016C17.1384 85.2573 16.9497 85.1284 16.6698 85.0149C16.3899 84.9015 15.9701 84.8087 15.4103 84.7365L13.5849 84.4891C13.0738 84.4066 12.6965 84.2777 12.4531 84.1024C12.2219 83.9271 12.1063 83.7054 12.1063 83.4373C12.1063 83.1074 12.2341 82.8135 12.4896 82.5557C12.7574 82.2876 13.1042 81.9989 13.5301 81.6896L14.0412 81.9989C13.8587 82.1639 13.6762 82.3495 13.4936 82.5557C13.3233 82.7516 13.2381 82.9373 13.2381 83.1126C13.2381 83.2672 13.305 83.3858 13.4388 83.4683C13.5849 83.5405 13.81 83.5972 14.1142 83.6384L15.8484 83.8549C16.7003 83.958 17.3513 84.1746 17.8016 84.5045C18.264 84.8345 18.4953 85.3037 18.4953 85.912C18.4953 86.3864 18.3432 86.7782 18.0389 87.0875C17.7469 87.4072 17.3331 87.6393 16.7976 87.7836C16.2743 87.928 15.6658 88.0001 14.9722 88.0001ZM15.0635 82.2464C14.3577 82.2464 13.7796 82.1072 13.3293 81.8288C12.8912 81.5504 12.5688 81.174 12.3619 80.6997C12.155 80.2254 12.0516 79.6943 12.0516 79.1066C12.0516 78.5291 12.155 78.0085 12.3619 77.5444C12.5809 77.0701 12.9095 76.6937 13.3476 76.4153C13.7857 76.1266 14.3455 75.9822 15.027 75.9822C15.6963 75.9822 16.25 76.1318 16.6881 76.4308C17.1262 76.7195 17.4487 77.1062 17.6556 77.5908C17.8746 78.0651 17.9842 78.5755 17.9842 79.122C17.9842 79.7201 17.8868 80.2563 17.6921 80.7306C17.4974 81.2049 17.1871 81.5762 16.7612 81.8443C16.3352 82.1123 15.7693 82.2464 15.0635 82.2464ZM15.0635 81.4267C15.4407 81.4267 15.7389 81.3596 15.9579 81.2255C16.1892 81.0812 16.3595 80.8956 16.4691 80.6688C16.5908 80.4419 16.6699 80.1944 16.7064 79.9263C16.7428 79.6479 16.7611 79.3746 16.7611 79.1066C16.7611 78.8385 16.7367 78.5704 16.688 78.3023C16.6515 78.0342 16.5724 77.7868 16.4507 77.5599C16.329 77.3331 16.1525 77.1526 15.9213 77.0185C15.7022 76.8742 15.4102 76.802 15.0451 76.802C14.68 76.802 14.3818 76.8742 14.1506 77.0185C13.9316 77.1629 13.7552 77.3536 13.6213 77.5908C13.4874 77.8177 13.3961 78.0651 13.3475 78.3332C13.311 78.591 13.2927 78.8488 13.2927 79.1066C13.2927 79.354 13.311 79.617 13.3475 79.8954C13.3961 80.1635 13.4813 80.4161 13.603 80.6533C13.7247 80.8801 13.9012 81.0658 14.1324 81.2101C14.3636 81.3545 14.6741 81.4267 15.0635 81.4267ZM17.5826 77.6372L17.2723 77.1577C17.394 76.9515 17.6069 76.7402 17.9112 76.5236C18.2276 76.3071 18.5927 76.1318 19.0064 75.9977L19.3715 76.7865C19.1646 76.8277 18.9334 76.8947 18.6778 76.9876C18.4344 77.0804 18.2093 77.1835 18.0024 77.2969C17.7955 77.4104 17.6556 77.5238 17.5826 77.6372ZM20.339 85.0614V76.1214H21.6715V85.0614H20.339ZM20.339 74.8841V73.3529H21.6715V74.8841H20.339ZM26.4177 85.1697C25.9065 85.1697 25.511 85.0872 25.2311 84.9222C24.9634 84.7469 24.7748 84.5149 24.6652 84.2261C24.5679 83.9271 24.5192 83.5868 24.5192 83.2053V76.8639H23.2231V76.1214H24.5192V73.3529H25.8517V76.1214H27.6042V76.8639H25.8517V83.0971C25.8517 83.5302 25.9065 83.8395 26.016 84.0251C26.1377 84.2004 26.3932 84.2881 26.7827 84.2881C26.8922 84.2881 27.0139 84.2829 27.1478 84.2726C27.2938 84.252 27.4276 84.2314 27.5493 84.2108V85.077C27.3668 85.1079 27.1782 85.1284 26.9835 85.1387C26.7888 85.1593 26.6002 85.1697 26.4177 85.1697ZM30.6344 85.2006C30.2206 85.2006 29.8555 85.1129 29.5391 84.9376C29.2227 84.752 28.9732 84.5097 28.7907 84.2107C28.6082 83.9013 28.5169 83.5662 28.5169 83.2053C28.5169 82.7516 28.596 82.365 28.7542 82.0453C28.9124 81.7257 29.1558 81.442 29.4844 81.1946C29.8129 80.9368 30.251 80.6894 30.7986 80.4522C31.3463 80.2048 32.0034 79.9315 32.7701 79.6324V78.9983C32.7701 78.4518 32.7336 78.0239 32.6605 77.7145C32.5875 77.3949 32.4536 77.168 32.259 77.0339C32.0764 76.8999 31.8087 76.8329 31.4557 76.8329C31.188 76.8329 30.9386 76.8793 30.7074 76.9721C30.4883 77.0649 30.3118 77.2247 30.178 77.4515C30.0563 77.6681 29.9954 77.9723 29.9954 78.3641V78.6735L28.6811 78.658C28.6933 77.7506 28.9184 77.0804 29.3565 76.6473C29.8068 76.2039 30.5309 75.9822 31.5288 75.9822C32.478 75.9822 33.1413 76.2246 33.5185 76.7092C33.9079 77.1835 34.1026 77.9259 34.1026 78.9364V83.2827C34.1026 83.4373 34.1087 83.6384 34.1208 83.8859C34.133 84.1231 34.1452 84.3498 34.1573 84.5664C34.1817 84.7829 34.1999 84.948 34.212 85.0614H33.0255C32.989 84.8655 32.9464 84.6489 32.8977 84.4118C32.8612 84.1643 32.8369 83.9684 32.8246 83.824C32.6786 84.1849 32.4169 84.5046 32.0397 84.783C31.6624 85.0614 31.1942 85.2006 30.6344 85.2006ZM31.0725 84.2416C31.3402 84.2416 31.5775 84.1849 31.7844 84.0715C32.0035 83.958 32.1981 83.824 32.3685 83.6694C32.5389 83.5044 32.6728 83.3394 32.7701 83.1744V80.3903C32.259 80.6171 31.8148 80.8234 31.4375 81.009C31.0724 81.1946 30.7743 81.3751 30.5431 81.5504C30.3119 81.7257 30.1354 81.9267 30.0137 82.1535C29.9042 82.3701 29.8494 82.6279 29.8494 82.9269C29.8494 83.4013 29.9711 83.7415 30.2145 83.9477C30.4579 84.1437 30.7439 84.2416 31.0725 84.2416ZM36.2384 85.0614V72.5331H37.571V85.0614H36.2384ZM39.8345 85.0614V76.1214H41.1853V77.3433C41.526 76.869 41.9155 76.5339 42.3536 76.338C42.7917 76.1317 43.2115 76.0286 43.6131 76.0286C43.6496 76.0286 43.6861 76.0286 43.7227 76.0286C43.7591 76.0286 43.8017 76.0338 43.8504 76.0441V77.2505C43.7652 77.2196 43.6618 77.1989 43.5402 77.1885C43.4185 77.1679 43.3029 77.1577 43.1933 77.1577C42.7796 77.1577 42.4023 77.2402 42.0616 77.4052C41.733 77.5701 41.4409 77.8331 41.1854 78.194V85.0613L39.8345 85.0614ZM47.7637 85.2006C47.1065 85.2006 46.5649 85.0923 46.139 84.8757C45.7252 84.6489 45.4149 84.2777 45.2081 83.7621C45.0134 83.2465 44.916 82.5608 44.916 81.705V79.4468C44.916 78.56 45.0194 77.8692 45.2263 77.3743C45.4332 76.869 45.7496 76.5132 46.1755 76.307C46.6014 76.0905 47.1369 75.9822 47.7819 75.9822C48.5242 75.9822 49.0901 76.1162 49.4795 76.3843C49.869 76.6524 50.1367 77.0597 50.2828 77.6062C50.441 78.1424 50.52 78.8333 50.52 79.6788V80.4831H46.2486V82.0453C46.2486 82.6227 46.2972 83.0816 46.3946 83.4219C46.5041 83.7518 46.6684 83.9889 46.8874 84.1333C47.1187 84.2777 47.4107 84.3498 47.7637 84.3498C48.0314 84.3498 48.2748 84.3086 48.4938 84.2261C48.7129 84.1333 48.8832 83.9632 49.0049 83.7157C49.1388 83.4579 49.2057 83.0971 49.2057 82.6331V82.0143H50.5018V82.5093C50.5018 83.3239 50.301 83.9787 49.8994 84.4736C49.51 84.9583 48.7981 85.2006 47.7637 85.2006ZM46.2486 79.8335H49.2057V79.0911C49.2057 78.6167 49.1753 78.2146 49.1144 77.8847C49.0535 77.5444 48.9196 77.2866 48.7128 77.1113C48.5181 76.9257 48.2017 76.8329 47.7636 76.8329C47.3985 76.8329 47.1003 76.8999 46.8691 77.0339C46.6501 77.168 46.4919 77.4103 46.3945 77.7609C46.2971 78.1012 46.2485 78.591 46.2485 79.2303L46.2486 79.8335ZM53.9336 85.2006C53.5198 85.2006 53.1548 85.1129 52.8384 84.9376C52.5219 84.752 52.2724 84.5097 52.0899 84.2107C51.9074 83.9013 51.8161 83.5662 51.8161 83.2053C51.8161 82.7516 51.8952 82.365 52.0534 82.0453C52.2116 81.7257 52.455 81.442 52.7836 81.1946C53.1121 80.9368 53.5502 80.6893 54.0979 80.4521C54.6455 80.2047 55.3027 79.9315 56.0693 79.6324V78.9982C56.0693 78.4517 56.0328 78.0239 55.9597 77.7145C55.8867 77.3949 55.7528 77.168 55.5581 77.0339C55.3756 76.8999 55.1079 76.8329 54.755 76.8329C54.4872 76.8329 54.2377 76.8793 54.0065 76.9721C53.7875 77.0649 53.6111 77.2247 53.4772 77.4515C53.3555 77.6681 53.2946 77.9723 53.2946 78.3641V78.6735L51.9803 78.658C51.9925 77.7506 52.2176 77.0803 52.6557 76.6472C53.106 76.2039 53.8301 75.9822 54.828 75.9822C55.7772 75.9822 56.4404 76.2246 56.8177 76.7092C57.2071 77.1835 57.4018 77.9259 57.4018 78.9364V83.2827C57.4018 83.4373 57.4079 83.6384 57.4201 83.8859C57.4322 84.1231 57.4444 84.3498 57.4565 84.5664C57.4808 84.7829 57.4991 84.948 57.5112 85.0614H56.3247C56.2883 84.8655 56.2456 84.6489 56.1969 84.4117C56.1604 84.1642 56.1361 83.9683 56.1238 83.824C55.9778 84.1848 55.7161 84.5045 55.3389 84.7829C54.9616 85.0613 54.4934 85.2006 53.9336 85.2006ZM54.3717 84.2416C54.6394 84.2416 54.8767 84.1849 55.0836 84.0715C55.3026 83.958 55.4974 83.8239 55.6677 83.6693C55.8381 83.5043 55.972 83.3393 56.0693 83.1743V80.3903C55.5582 80.6171 55.114 80.8234 54.7368 81.009C54.3717 81.1946 54.0735 81.375 53.8423 81.5503C53.6111 81.7256 53.4346 81.9267 53.3129 82.1535C53.2034 82.3701 53.1487 82.6279 53.1487 82.9269C53.1487 83.4013 53.2703 83.7415 53.5137 83.9477C53.7571 84.1437 54.0431 84.2416 54.3717 84.2416ZM61.6916 85.2006C60.7911 85.2006 60.14 84.9118 59.7384 84.3344C59.349 83.7569 59.1543 82.798 59.1543 81.4576V79.8025C59.1543 79.0189 59.2212 78.3435 59.3551 77.7764C59.489 77.2093 59.7323 76.771 60.0853 76.4617C60.4503 76.142 60.9675 75.9822 61.6369 75.9822C62.0506 75.9822 62.4096 76.0647 62.7139 76.2297C63.0303 76.3843 63.2919 76.5596 63.4988 76.7556V72.5331H64.8313V85.0614H63.4988V84.4272C63.2919 84.6231 63.0364 84.8036 62.7321 84.9686C62.4401 85.1232 62.0932 85.2006 61.6916 85.2006ZM61.9654 84.3035C62.2575 84.3035 62.5313 84.2467 62.7869 84.1333C63.0546 84.0199 63.2919 83.8807 63.4988 83.7157V77.498C63.3162 77.3536 63.0911 77.2144 62.8234 77.0803C62.5556 76.936 62.2575 76.8639 61.9289 76.8639C61.3448 76.8639 60.9554 77.0855 60.7606 77.5289C60.5781 77.9619 60.4868 78.5961 60.4868 79.4313V81.5503C60.4868 82.1484 60.5234 82.6537 60.5964 83.0661C60.6816 83.4786 60.8277 83.7879 61.0345 83.9941C61.2536 84.2003 61.5638 84.3035 61.9654 84.3035ZM67.0401 85.0614V76.1214H68.3727V85.0614H67.0401ZM67.0401 74.8841V73.3528H68.3727V74.8841H67.0401ZM70.6179 85.0614V76.1214H71.9505V77.0494C72.2912 76.7401 72.6746 76.4874 73.1005 76.2915C73.5264 76.0853 73.9889 75.9822 74.4878 75.9822C74.8408 75.9822 75.1389 76.0595 75.3823 76.2142C75.6257 76.3585 75.8082 76.5751 75.9299 76.8639C76.0516 77.1423 76.1124 77.4825 76.1124 77.8847V85.0614H74.7799V78.1321C74.7799 77.6681 74.6947 77.3433 74.5243 77.1577C74.3661 76.9617 74.1167 76.8639 73.7759 76.8639C73.4717 76.8639 73.1614 76.9411 72.845 77.0958C72.5285 77.2505 72.2304 77.4516 71.9505 77.699V85.0614H70.6179ZM80.7855 88.0001C80.0919 88.0001 79.4834 87.9434 78.9602 87.83C78.449 87.7165 78.0535 87.5361 77.7736 87.2886C77.5059 87.0514 77.372 86.7472 77.372 86.376C77.372 86.0667 77.4694 85.778 77.6641 85.5099C77.8588 85.2521 78.1021 85.0253 78.3942 84.8294C78.6863 84.6335 78.9845 84.4788 79.2887 84.3653L80.0189 84.5045C79.8363 84.6076 79.6234 84.7366 79.38 84.8912C79.1488 85.0459 78.948 85.2211 78.7776 85.417C78.6194 85.613 78.5403 85.8347 78.5403 86.0821C78.5403 86.4327 78.7289 86.6854 79.1062 86.84C79.4834 87.005 80.0615 87.0875 80.8403 87.0875C81.5583 87.0875 82.1303 86.9947 82.5562 86.8091C82.9943 86.6338 83.2134 86.3451 83.2134 85.9429C83.2134 85.7367 83.1586 85.5563 83.0491 85.4016C82.9517 85.2573 82.7631 85.1284 82.4832 85.0149C82.2033 84.9015 81.7835 84.8087 81.2237 84.7365L79.3983 84.489C78.8871 84.4066 78.5099 84.2776 78.2665 84.1023C78.0353 83.927 77.9197 83.7054 77.9197 83.4373C77.9197 83.1074 78.0474 82.8135 78.303 82.5557C78.5707 82.2876 78.9175 81.9988 79.3435 81.6895L79.8546 81.9988C79.6721 82.1638 79.4895 82.3495 79.307 82.5557C79.1366 82.7516 79.0514 82.9372 79.0514 83.1125C79.0514 83.2672 79.1183 83.3857 79.2522 83.4682C79.3982 83.5404 79.6234 83.5972 79.9276 83.6384L81.6618 83.8549C82.5136 83.958 83.1647 84.1746 83.615 84.5045C84.0774 84.8345 84.3086 85.3037 84.3086 85.912C84.3086 86.3864 84.1565 86.7782 83.8523 87.0875C83.5602 87.4072 83.1465 87.6392 82.611 87.7835C82.0877 87.9279 81.4792 88.0001 80.7855 88.0001ZM80.8769 82.2464C80.171 82.2464 79.593 82.1072 79.1427 81.8288C78.7046 81.5504 78.3821 81.174 78.1753 80.6996C77.9684 80.2253 77.8649 79.6943 77.8649 79.1066C77.8649 78.5291 77.9684 78.0084 78.1753 77.5444C78.3943 77.07 78.7229 76.6937 79.161 76.4153C79.5991 76.1266 80.1589 75.9822 80.8404 75.9822C81.5097 75.9822 82.0634 76.1317 82.5015 76.4307C82.9396 76.7194 83.2621 77.1062 83.469 77.5908C83.688 78.0651 83.7976 78.5755 83.7976 79.122C83.7976 79.7201 83.7002 80.2563 83.5055 80.7306C83.3108 81.2049 83.0005 81.5761 82.5745 81.8442C82.1486 82.1123 81.5827 82.2464 80.8769 82.2464ZM80.8769 81.4266C81.2541 81.4266 81.5523 81.3596 81.7714 81.2255C82.0026 81.0812 82.1729 80.8956 82.2825 80.6688C82.4042 80.4419 82.4832 80.1944 82.5197 79.9263C82.5562 79.6479 82.5745 79.3746 82.5745 79.1066C82.5745 78.8385 82.5501 78.5704 82.5014 78.3023C82.4649 78.0342 82.3858 77.7867 82.264 77.5598C82.1423 77.333 81.9659 77.1525 81.7346 77.0185C81.5156 76.8741 81.2236 76.8019 80.8585 76.8019C80.4934 76.8019 80.1953 76.8741 79.964 77.0185C79.745 77.1628 79.5685 77.3536 79.4347 77.5908C79.3008 77.8177 79.2095 78.0651 79.1608 78.3332C79.1244 78.5909 79.1061 78.8488 79.1061 79.1066C79.1061 79.354 79.1244 79.6169 79.1608 79.8954C79.2096 80.1634 79.2947 80.4161 79.4164 80.6533C79.5381 80.8801 79.7145 81.0657 79.9458 81.21C80.177 81.3544 80.4874 81.4266 80.8769 81.4266ZM83.396 77.6372L83.0856 77.1577C83.2073 76.9514 83.4203 76.7401 83.7245 76.5235C84.0409 76.307 84.406 76.1317 84.8198 75.9976L85.1848 76.7865C84.978 76.8277 84.7468 76.8947 84.4912 76.9876C84.2478 77.0804 84.0227 77.1834 83.8158 77.2968C83.6089 77.4103 83.469 77.5238 83.396 77.6372Z" fill="black"/>
<path d="M87.6309 85.2006C87.2171 85.2006 86.8763 85.113 86.6086 84.9377C86.3409 84.7521 86.1462 84.5098 86.0245 84.2107C85.9028 83.9014 85.8419 83.5766 85.8419 83.2363V76.1214H88.3245V82.8496C88.3245 83.1177 88.3732 83.329 88.4705 83.4837C88.5801 83.6281 88.7748 83.7003 89.0547 83.7003C89.2373 83.7003 89.4198 83.659 89.6023 83.5765C89.797 83.494 89.9857 83.3961 90.1682 83.2827V76.1214H92.6508V85.0614H90.1682V84.2107C89.8153 84.4994 89.4259 84.7366 88.9999 84.9222C88.574 85.1078 88.1177 85.2006 87.6309 85.2006ZM96.9405 85.2006C96.1008 85.2006 95.4619 84.9479 95.0238 84.4427C94.5979 83.9374 94.3849 83.128 94.3849 82.0144V79.2767C94.3849 78.658 94.464 78.1012 94.6222 77.6063C94.7926 77.1114 95.0603 76.7195 95.4254 76.4308C95.7905 76.1318 96.2834 75.9822 96.904 75.9822C97.2812 75.9822 97.6281 76.0492 97.9445 76.1833C98.2731 76.307 98.5712 76.4721 98.8389 76.6783V72.5331H101.322V85.0614H98.8389V84.4273C98.559 84.6644 98.2609 84.8552 97.9445 84.9995C97.6281 85.1336 97.2934 85.2006 96.9405 85.2006ZM97.8532 83.7467C97.9871 83.7467 98.1392 83.7209 98.3095 83.6693C98.4799 83.6177 98.6564 83.5455 98.8389 83.4527V77.7145C98.6929 77.632 98.5347 77.565 98.3643 77.5135C98.194 77.4516 98.0175 77.4206 97.8349 77.4206C97.482 77.4206 97.2326 77.5598 97.0866 77.8382C96.9527 78.1063 96.8857 78.4362 96.8857 78.8281V82.169C96.8857 82.468 96.9101 82.7361 96.9588 82.9733C97.0074 83.2105 97.0987 83.4012 97.2327 83.5456C97.3787 83.6796 97.5855 83.7467 97.8532 83.7467ZM107.747 85.2006C107.358 85.2006 106.992 85.1232 106.652 84.9686C106.311 84.8139 105.995 84.6231 105.703 84.3963V85.0614H103.22V72.5331H105.703V76.802C106.007 76.5545 106.335 76.3586 106.688 76.2143C107.053 76.0596 107.443 75.9822 107.856 75.9822C108.331 75.9822 108.721 76.075 109.025 76.2606C109.329 76.4462 109.566 76.6937 109.737 77.0031C109.907 77.3021 110.023 77.6269 110.084 77.9775C110.157 78.3178 110.193 78.6477 110.193 78.9674V81.9989C110.193 82.5867 110.108 83.1229 109.938 83.6075C109.779 84.0921 109.518 84.4788 109.153 84.7675C108.8 85.0562 108.331 85.2006 107.747 85.2006ZM106.798 83.7312C107.066 83.7312 107.26 83.659 107.382 83.5147C107.516 83.36 107.601 83.1589 107.637 82.9114C107.686 82.6537 107.711 82.3753 107.711 82.0763V78.8746C107.711 78.5962 107.686 78.3487 107.637 78.1322C107.589 77.9053 107.497 77.7249 107.364 77.5908C107.242 77.4568 107.047 77.3898 106.78 77.3898C106.585 77.3898 106.396 77.431 106.214 77.5135C106.031 77.5857 105.861 77.6682 105.703 77.761V83.4065C105.861 83.4992 106.031 83.5765 106.214 83.6384C106.408 83.7003 106.603 83.7312 106.798 83.7312Z" fill="black"/>
</svg>
