<?xml version="1.0" encoding="UTF-8" standalone="no"?>
<!-- Created with Inkscape (http://www.inkscape.org/) -->

<svg
   width="58.145222mm"
   height="56.684914mm"
   viewBox="0 0 58.145222 56.684914"
   version="1.1"
   id="svg1"
   xml:space="preserve"
   inkscape:version="1.3.2 (091e20e, 2023-11-25, custom)"
   sodipodi:docname="digital.svg"
   inkscape:export-filename="digital.svg"
   inkscape:export-xdpi="96"
   inkscape:export-ydpi="96"
   xmlns:inkscape="http://www.inkscape.org/namespaces/inkscape"
   xmlns:sodipodi="http://sodipodi.sourceforge.net/DTD/sodipodi-0.dtd"
   xmlns="http://www.w3.org/2000/svg"
   xmlns:svg="http://www.w3.org/2000/svg"><sodipodi:namedview
     id="namedview1"
     pagecolor="#ffffff"
     bordercolor="#000000"
     borderopacity="0.25"
     inkscape:showpageshadow="2"
     inkscape:pageopacity="0.0"
     inkscape:pagecheckerboard="0"
     inkscape:deskcolor="#d1d1d1"
     inkscape:document-units="mm"
     inkscape:zoom="0.97890839"
     inkscape:cx="-1389.8134"
     inkscape:cy="2408.2948"
     inkscape:window-width="1920"
     inkscape:window-height="991"
     inkscape:window-x="-9"
     inkscape:window-y="-9"
     inkscape:window-maximized="1"
     inkscape:current-layer="g9"
     showguides="true"><sodipodi:guide
       position="807.09024,229.27234"
       orientation="1,0"
       id="guide36"
       inkscape:locked="false" /><sodipodi:guide
       position="820.54461,227.24541"
       orientation="1,0"
       id="guide37"
       inkscape:locked="false" /><sodipodi:guide
       position="198.57144,40.478919"
       orientation="1,0"
       id="guide9"
       inkscape:locked="false" /></sodipodi:namedview><defs
     id="defs1" /><g
     inkscape:label="Layer 1"
     inkscape:groupmode="layer"
     id="layer1"
     transform="translate(364.93128,-597.98198)"><text
       xml:space="preserve"
       style="font-weight:300;font-size:12.5375px;line-height:1.3;font-family:Oswald;-inkscape-font-specification:'Oswald Light';text-align:center;letter-spacing:0px;text-anchor:middle;fill:#2e3436;stroke-width:3.52616;stroke-linecap:square"
       x="-335.90765"
       y="649.41998"
       id="text1-7"
       inkscape:export-filename="..\..\PerpusUdb\Assets\img\logorev.svg"
       inkscape:export-xdpi="96"
       inkscape:export-ydpi="96"><tspan
         sodipodi:role="line"
         id="tspan1-7"
         style="font-style:normal;font-variant:normal;font-weight:bold;font-stretch:normal;font-family:Garamond;-inkscape-font-specification:'Garamond Bold';fill:#2e3436;stroke-width:3.52616"
         x="-335.90765"
         y="649.41998">Pusaku</tspan></text><text
       xml:space="preserve"
       style="font-style:normal;font-variant:normal;font-weight:bold;font-stretch:normal;font-size:4.35621px;line-height:1.3;font-family:Lexend;-inkscape-font-specification:'Lexend Bold';text-align:center;letter-spacing:0px;text-anchor:middle;fill:#2e3436;fill-opacity:1;stroke-width:2.45037;stroke-linecap:square"
       x="-335.88632"
       y="654.5882"
       id="text2-0"><tspan
         sodipodi:role="line"
         id="tspan2-5"
         style="font-style:normal;font-variant:normal;font-weight:normal;font-stretch:normal;font-size:4.35621px;font-family:Garamond;-inkscape-font-specification:Garamond;fill:#2e3436;fill-opacity:1;stroke-width:2.45037"
         x="-335.88632"
         y="654.5882">Pusat Informasi dan Koleksi Buku</tspan></text><g
       style="fill:none"
       id="g9"
       transform="matrix(0.5987084,0,0,0.5987084,-370.1451,597.98196)"><path
         d="M 55.9445,3.26525e-5 C 55.6057,1.57494e-4 55.2827,0.0140743 55.0042,0.0489258 54.6328,0.0954292 54.3324,0.0541257 54.1795,0.0666099 53.8707,0.0899136 53.894,0.101782 55.0827,0.404782 59.3071,1.48271 63.2288,3.40572 66.5559,6.03359 c 0.9264,0.73417 2.8432,2.63354 3.7638,3.73478 l 0.6704,0.80433 h 0.0344 L 71.6949,9.76837 C 72.6156,8.66713 74.5323,6.76776 75.4588,6.03359 78.7859,3.40572 82.7076,1.48271 86.932,0.404782 88.1206,0.101792 88.144,0.0899344 87.8352,0.0666099 87.6822,0.0529814 87.3818,0.0952211 87.0105,0.0489258 85.8963,-0.0903451 84.0706,0.105945 83.3714,0.171508 80.4405,0.445368 78.0986,0.969919 75.8028,1.87305 74.0956,2.54314 72.2601,3.59227 71.153,4.52455 L 71.0073,4.64821 70.8616,4.52455 C 69.7546,3.59227 67.9191,2.54314 66.2118,1.87305 63.9161,0.969919 61.5736,0.445368 58.6428,0.171508 58.1184,0.1223 56.9607,-3.52275e-4 55.9445,3.26525e-5 Z M 36.1474,7.26963 c -1.7299,0 -3.2744,0.30134 -4.6337,0.90373 -1.3592,0.60239 -2.429,1.44039 -3.209,2.51384 -0.7723,1.0735 -1.154,2.3285 -1.1467,3.7649 -0.0073,1.7532 0.5673,3.1473 1.7257,4.1821 1.1585,1.0349 2.7378,1.7951 4.738,2.2817 l 2.5838,0.6489 c 0.8649,0.2085 1.5945,0.4403 2.1891,0.6951 0.6024,0.2549 1.0583,0.5639 1.3672,0.9268 0.3166,0.363 0.4747,0.8106 0.4747,1.3435 0,0.5715 -0.1734,1.0775 -0.521,1.5177 -0.3475,0.4402 -0.8381,0.784 -1.4714,1.0312 -0.6256,0.2471 -1.3633,0.3709 -2.2128,0.3709 -0.865,0 -1.6411,-0.1315 -2.3284,-0.3941 -0.6796,-0.2703 -1.224,-0.6683 -1.6333,-1.1935 C 31.668,25.3296 31.4404,24.6655 31.3863,23.87 h -4.8541 c 0.0386,1.7068 0.452,3.1398 1.2397,4.2983 0.7955,1.1507 1.8995,2.0194 3.3128,2.6063 1.421,0.587 3.0893,0.8801 5.0046,0.8801 1.9308,0 3.5796,-0.2896 4.9466,-0.8688 1.3747,-0.587 2.425,-1.4091 3.151,-2.4671 0.7337,-1.0658 1.105,-2.3248 1.1123,-3.7767 -0.0073,-0.9886 -0.1894,-1.8649 -0.5446,-2.6295 -0.3475,-0.7646 -0.8382,-1.4291 -1.4715,-1.9929 -0.6332,-0.5638 -1.3822,-1.0386 -2.2472,-1.4247 -0.865,-0.3862 -1.815,-0.6952 -2.8499,-0.9269 l -2.1311,-0.5096 c -0.5174,-0.1159 -1.0045,-0.255 -1.4601,-0.4172 -0.4557,-0.1699 -0.8573,-0.3669 -1.2048,-0.5908 -0.3475,-0.2317 -0.6212,-0.5059 -0.822,-0.8226 -0.1931,-0.3166 -0.2822,-0.687 -0.2667,-1.1118 0,-0.5097 0.1469,-0.9655 0.4403,-1.3671 0.3012,-0.4016 0.7335,-0.7142 1.2973,-0.9381 0.5638,-0.2317 1.2549,-0.3479 2.0736,-0.3479 1.2047,0 2.1589,0.2589 2.8617,0.7763 0.7028,0.5175 1.1002,1.2434 1.1929,2.1779 h 4.8074 C 44.9513,13.0039 44.5733,11.7607 43.8396,10.6872 43.1059,9.61375 42.0786,8.77575 40.758,8.17336 39.4451,7.57097 37.9082,7.26963 36.1474,7.26963 Z M 75.316,36.0006 c -1.73,0 -3.2744,0.3013 -4.6337,0.9037 -1.3592,0.6024 -2.429,1.4404 -3.209,2.5139 -0.7723,1.0735 -1.154,2.3284 -1.1467,3.7649 -0.0073,1.7531 0.5672,3.1472 1.7257,4.1821 1.1585,1.0349 2.7378,1.7951 4.738,2.2816 l 2.5838,0.6489 c 0.8649,0.2086 1.5944,0.4403 2.1891,0.6952 0.6024,0.2548 1.0583,0.5638 1.3672,0.9268 0.3166,0.363 0.4747,0.8106 0.4747,1.3435 0,0.5715 -0.1734,1.0775 -0.521,1.5177 -0.3475,0.4402 -0.8381,0.784 -1.4714,1.0311 -0.6256,0.2472 -1.3633,0.371 -2.2128,0.371 -0.865,0 -1.6411,-0.1315 -2.3284,-0.3941 -0.6796,-0.2703 -1.224,-0.6683 -1.6333,-1.1935 -0.4016,-0.5329 -0.6293,-1.1969 -0.6833,-1.9924 h -4.8541 c 0.0386,1.7068 0.452,3.1398 1.2397,4.2982 0.7955,1.1508 1.8995,2.0194 3.3128,2.6064 1.421,0.5869 3.0893,0.8801 5.0046,0.8801 1.9308,0 3.5796,-0.2896 4.9466,-0.8688 1.3747,-0.587 2.425,-1.4091 3.151,-2.4671 0.7337,-1.0658 1.105,-2.3249 1.1123,-3.7768 -0.0073,-0.9885 -0.1894,-1.8648 -0.5446,-2.6294 -0.3476,-0.7646 -0.8382,-1.4292 -1.4715,-1.993 -0.6332,-0.5637 -1.3822,-1.0385 -2.2472,-1.4246 -0.865,-0.3862 -1.815,-0.6952 -2.8499,-0.9269 l -2.1311,-0.5096 c -0.5174,-0.1159 -1.0045,-0.255 -1.4601,-0.4172 -0.4557,-0.1699 -0.8573,-0.3669 -1.2048,-0.5909 -0.3476,-0.2317 -0.6212,-0.5059 -0.822,-0.8225 -0.1931,-0.3167 -0.2822,-0.687 -0.2667,-1.1118 0,-0.5097 0.1468,-0.9656 0.4403,-1.3671 0.3012,-0.4016 0.7335,-0.7142 1.2973,-0.9382 0.5637,-0.2317 1.2549,-0.3478 2.0735,-0.3478 1.2048,0 2.159,0.2589 2.8618,0.7763 0.7028,0.5174 1.1002,1.2434 1.1929,2.1779 h 4.8074 c -0.0232,-1.4133 -0.4013,-2.6565 -1.1349,-3.73 -0.7337,-1.0735 -1.761,-1.9115 -3.0816,-2.5139 -1.3129,-0.6024 -2.8498,-0.9037 -4.6106,-0.9037 z M 48.6587,7.59382 v 5.30758 h 5.016 V 7.59382 Z m 9.1518,0 V 18.7383 h 4.8654 l -0.0704,-4.677 h 0.1967 l 6.4095,6.7476 h 3.3133 l 5.8702,-6.6895 h 0.1967 l 0.0705,17.1998 h 4.8654 V 7.59382 H 77.342 L 71.0073,14.686 h -0.278 L 63.9963,7.59382 Z M 27.5284,36.7254 v 23.7254 h 5.0159 v -7.6922 h 4.2171 c 1.8226,0 3.3747,-0.3361 4.6568,-1.008 1.2897,-0.6719 2.2745,-1.6102 2.9541,-2.8149 0.6797,-1.2048 1.0193,-2.5948 1.0193,-4.1703 0,-1.5755 -0.3355,-2.966 -1.0074,-4.1708 C 43.72,39.3821 42.7546,38.4361 41.488,37.7565 40.2215,37.0692 38.6882,36.7254 36.8888,36.7254 Z M 48.6587,15.4957 v 36.6371 c 0,1.73 0.4093,3.2438 1.2279,4.5412 2.8791,4.5631 8.5465,4.7288 11.5301,0 0.8264,-1.2974 1.2392,-2.8112 1.2392,-4.5412 V 21.5597 H 57.64 v 30.1447 c 0,0.9035 -0.2011,1.7067 -0.6027,2.4095 -0.3939,0.7028 -0.9535,1.2548 -1.6795,1.6564 -0.7798,0.436 1.5221,0.5107 0.599,0 -0.7259,-0.4016 -1.2897,-0.9536 -1.6913,-1.6564 -0.3939,-0.7028 -0.5908,-1.506 -0.5908,-2.4095 V 15.4957 Z M 32.5443,40.8263 h 3.3827 c 0.9731,0 1.7763,0.1663 2.4096,0.4984 0.6332,0.3243 1.1044,0.7837 1.4133,1.3784 0.3167,0.587 0.4753,1.2745 0.4753,2.0623 0,0.78 -0.1586,1.4712 -0.4753,2.0736 -0.3089,0.5946 -0.7801,1.0617 -1.4133,1.4015 -0.6256,0.3321 -1.4206,0.4984 -2.386,0.4984 h -3.4063 z"
         fill="#2b3d89"
         id="path1" /><path
         d="m 36.1474,7.26965 c -1.7299,0 -3.2744,0.30134 -4.6337,0.90373 -1.3592,0.60239 -2.429,1.44039 -3.209,2.51392 -0.7723,1.0735 -1.154,2.3284 -1.1467,3.7649 -0.0073,1.7531 0.5673,3.1472 1.7257,4.1821 1.1585,1.0348 2.7378,1.795 4.738,2.2816 l 2.5838,0.6489 c 0.8649,0.2085 1.5945,0.4403 2.1891,0.6951 0.6024,0.2549 1.0583,0.5639 1.3672,0.9269 0.3166,0.3629 0.4747,0.8106 0.4747,1.3435 0,0.5714 -0.1734,1.0774 -0.521,1.5176 -0.3475,0.4402 -0.8381,0.784 -1.4714,1.0312 -0.6256,0.2471 -1.3633,0.3709 -2.2128,0.3709 -0.865,0 -1.6411,-0.1315 -2.3284,-0.394 -0.6797,-0.2703 -1.224,-0.6684 -1.6333,-1.1935 -0.4016,-0.5329 -0.6292,-1.197 -0.6833,-1.9924 h -4.8541 c 0.0386,1.7067 0.452,3.1397 1.2397,4.2982 0.7955,1.1507 1.8995,2.0194 3.3128,2.6063 1.421,0.587 3.0893,0.8801 5.0046,0.8801 1.9308,0 3.5796,-0.2896 4.9466,-0.8688 1.3747,-0.5869 2.425,-1.409 3.151,-2.4671 0.7337,-1.0658 1.105,-2.3248 1.1123,-3.7767 -0.0073,-0.9886 -0.1894,-1.8649 -0.5446,-2.6295 -0.3475,-0.7645 -0.8382,-1.4291 -1.4715,-1.9929 -0.6333,-0.5638 -1.3822,-1.0385 -2.2472,-1.4247 -0.865,-0.3861 -1.815,-0.6951 -2.8499,-0.9268 l -2.1311,-0.5097 c -0.5174,-0.1158 -1.0045,-0.255 -1.4601,-0.4172 -0.4557,-0.1699 -0.8573,-0.3669 -1.2048,-0.5908 -0.3475,-0.2317 -0.6212,-0.5059 -0.822,-0.8226 -0.1931,-0.3166 -0.2822,-0.687 -0.2667,-1.1117 0,-0.5098 0.1469,-0.9656 0.4403,-1.3672 0.3012,-0.4016 0.7335,-0.7142 1.2973,-0.9381 0.5638,-0.2317 1.2549,-0.3479 2.0736,-0.3479 1.2047,0 2.1589,0.2589 2.8617,0.7764 0.7028,0.5174 1.1002,1.2433 1.1929,2.1778 h 4.8074 C 44.9513,13.0039 44.5732,11.7608 43.8396,10.6873 43.1059,9.61377 42.0786,8.77577 40.758,8.17338 39.4451,7.57099 37.9082,7.26965 36.1474,7.26965 Z M 75.316,36.0006 c -1.73,0 -3.2745,0.3014 -4.6337,0.9038 -1.3592,0.6023 -2.429,1.4403 -3.209,2.5138 -0.7723,1.0735 -1.154,2.3285 -1.1467,3.7649 -0.0073,1.7532 0.5672,3.1473 1.7257,4.1821 1.1584,1.0349 2.7377,1.7951 4.738,2.2817 l 2.5838,0.6489 c 0.8649,0.2085 1.5944,0.4402 2.1891,0.6951 0.6024,0.2549 1.0582,0.5639 1.3672,0.9268 0.3166,0.363 0.4747,0.8106 0.4747,1.3435 0,0.5715 -0.1734,1.0775 -0.521,1.5177 -0.3475,0.4402 -0.8381,0.784 -1.4714,1.0312 -0.6256,0.2471 -1.3633,0.3709 -2.2128,0.3709 -0.865,0 -1.6411,-0.1315 -2.3284,-0.3941 -0.6797,-0.2703 -1.224,-0.6683 -1.6333,-1.1935 -0.4016,-0.5328 -0.6293,-1.1969 -0.6833,-1.9924 h -4.8541 c 0.0386,1.7068 0.452,3.1398 1.2397,4.2983 0.7955,1.1507 1.8995,2.0194 3.3128,2.6063 1.421,0.587 3.0893,0.8801 5.0046,0.8801 1.9308,0 3.5796,-0.2896 4.9466,-0.8688 1.3747,-0.587 2.425,-1.4091 3.151,-2.4671 0.7337,-1.0658 1.105,-2.3248 1.1123,-3.7767 -0.0073,-0.9886 -0.1894,-1.8649 -0.5446,-2.6295 -0.3476,-0.7646 -0.8382,-1.4291 -1.4715,-1.9929 -0.6332,-0.5638 -1.3822,-1.0386 -2.2472,-1.4247 -0.865,-0.3862 -1.815,-0.6952 -2.8499,-0.9269 l -2.1311,-0.5096 c -0.5174,-0.1159 -1.0045,-0.255 -1.4601,-0.4172 -0.4557,-0.1699 -0.8573,-0.3669 -1.2048,-0.5908 -0.3476,-0.2317 -0.6212,-0.506 -0.822,-0.8226 -0.1931,-0.3166 -0.2822,-0.687 -0.2667,-1.1118 0,-0.5097 0.1468,-0.9655 0.4403,-1.3671 0.3012,-0.4016 0.7335,-0.7142 1.2973,-0.9381 0.5637,-0.2317 1.2549,-0.3479 2.0735,-0.3479 1.2048,0 2.159,0.2589 2.8618,0.7763 0.7028,0.5175 1.1002,1.2434 1.1929,2.1779 h 4.8074 c -0.0232,-1.4133 -0.4013,-2.6565 -1.1349,-3.73 -0.7337,-1.0735 -1.761,-1.9115 -3.0816,-2.5138 -1.3129,-0.6024 -2.8498,-0.9038 -4.6106,-0.9038 z m -47.7876,0.7248 v 23.7254 h 5.0159 v -7.6922 h 4.2171 c 1.8226,0 3.3747,-0.3361 4.6567,-1.008 1.2898,-0.6719 2.2746,-1.6101 2.9542,-2.8149 0.6797,-1.2048 1.0193,-2.5948 1.0193,-4.1703 0,-1.5755 -0.3355,-2.966 -1.0074,-4.1708 C 43.72,39.3821 42.7546,38.4362 41.488,37.7565 40.2215,37.0692 38.6882,36.7254 36.8888,36.7254 Z m 5.0159,4.1009 h 3.3827 c 0.9731,0 1.7763,0.1663 2.4096,0.4984 0.6332,0.3244 1.1044,0.7838 1.4133,1.3784 0.3167,0.587 0.4753,1.2746 0.4753,2.0623 0,0.78 -0.1586,1.4712 -0.4753,2.0736 -0.3089,0.5947 -0.7801,1.0617 -1.4133,1.4015 -0.6256,0.3321 -1.4206,0.4984 -2.386,0.4984 h -3.4063 z"
         fill="#e6212a"
         id="path2" /></g></g></svg>
