<?xml version="1.0" encoding="UTF-8" standalone="no"?>
<!-- Created with Inkscape (http://www.inkscape.org/) -->

<svg
   width="261.68475mm"
   height="68.289246mm"
   viewBox="0 0 261.68475 68.289246"
   version="1.1"
   id="svg1"
   xml:space="preserve"
   inkscape:version="1.3.2 (091e20e, 2023-11-25, custom)"
   sodipodi:docname="logorev.svg"
   xmlns:inkscape="http://www.inkscape.org/namespaces/inkscape"
   xmlns:sodipodi="http://sodipodi.sourceforge.net/DTD/sodipodi-0.dtd"
   xmlns="http://www.w3.org/2000/svg"
   xmlns:svg="http://www.w3.org/2000/svg"><sodipodi:namedview
     id="namedview1"
     pagecolor="#ffffff"
     bordercolor="#000000"
     borderopacity="0.25"
     inkscape:showpageshadow="2"
     inkscape:pageopacity="0.0"
     inkscape:pagecheckerboard="0"
     inkscape:deskcolor="#d1d1d1"
     inkscape:document-units="mm"
     inkscape:zoom="0.34609638"
     inkscape:cx="-359.72638"
     inkscape:cy="1605.0442"
     inkscape:window-width="1920"
     inkscape:window-height="991"
     inkscape:window-x="-9"
     inkscape:window-y="-9"
     inkscape:window-maximized="1"
     inkscape:current-layer="layer1"
     showguides="true"><sodipodi:guide
       position="416.17874,181.35983"
       orientation="1,0"
       id="guide36"
       inkscape:locked="false" /><sodipodi:guide
       position="429.63311,179.3329"
       orientation="1,0"
       id="guide37"
       inkscape:locked="false" /></sodipodi:namedview><defs
     id="defs1" /><g
     inkscape:label="Layer 1"
     inkscape:groupmode="layer"
     id="layer1"
     transform="translate(-25.980217,-550.06947)"><g
       id="g2"
       transform="translate(265.27413,124.61004)"
       inkscape:export-filename="..\..\PerpusUdb\Assets\img\logorev.svg"
       inkscape:export-xdpi="96"
       inkscape:export-ydpi="96"><path
         id="rect1"
         style="fill:#107ec7;fill-opacity:1;stroke-width:3.68715;stroke-linecap:square"
         d="m -235.77889,-429.71641 c -1.94758,0 -3.51503,-1.56797 -3.51503,-3.51554 v -57.00118 c 0,-1.94757 1.56745,-3.51554 3.51503,-3.51554 h 58.7592 c 1.94758,0 3.51555,1.56797 3.51555,3.51554 v 57.00118 c 0,1.64016 -1.11759,2.99858 -2.63188,3.39049 -0.13124,-0.0342 -0.24737,-0.0645 -0.43615,-0.11266 -4.06056,-1.03613 -7.83021,-2.88456 -11.02827,-5.41052 -0.89052,-0.7057 -2.73294,-2.53142 -3.61786,-3.58996 l -0.64441,-0.77308 h -0.0331 l -0.64441,0.77308 c -0.88492,1.05854 -2.72733,2.88426 -3.61786,3.58996 -3.19804,2.52596 -6.96769,4.37439 -11.02827,5.41052 -0.49188,0.12539 -0.74567,0.19286 -0.88625,0.23771 z m 31.86472,0 c 0.039,-0.004 0.11612,-0.0103 0.14986,-0.0134 2.8172,-0.26324 5.06883,-0.76745 7.27553,-1.63556 1.64103,-0.6441 3.40534,-1.65255 4.46949,-2.54868 l 0.14005,-0.11886 0.14004,0.11886 c 1.06415,0.89613 2.82847,1.90458 4.46949,2.54868 2.20672,0.86811 4.45781,1.37232 7.27501,1.63556 0.0355,0.003 0.10235,0.009 0.14366,0.0134 -9.09619,5.64453 -17.1292,5.70733 -24.06313,0 z"
         transform="scale(1,-1)"
         sodipodi:nodetypes="sssssssccccccccccscccccccscc" /><path
         id="text36"
         style="font-weight:bold;font-size:31.3568px;line-height:0;font-family:Inter;-inkscape-font-specification:'Inter Bold';text-align:center;letter-spacing:0px;text-anchor:middle;fill:#ffffff;fill-opacity:1;stroke-width:22.0477;stroke-linecap:square"
         d="m -224.76598,436.8553 c -1.66286,0 -3.14746,0.28965 -4.45399,0.86868 -1.30653,0.57903 -2.3348,1.38452 -3.08457,2.41639 -0.74232,1.03187 -1.10926,2.23813 -1.10226,3.6189 -0.007,1.68513 0.5453,3.02516 1.65882,4.01991 1.11353,0.99475 2.63156,1.72548 4.55424,2.19315 l 2.48357,0.62373 c 0.83143,0.20043 1.53265,0.42321 2.10426,0.66818 0.57903,0.24497 1.0172,0.54199 1.31414,0.8909 0.30437,0.3489 0.4563,0.77916 0.4563,1.29139 0,0.54933 -0.16669,1.03569 -0.50075,1.45883 -0.33405,0.42314 -0.80565,0.7536 -1.41438,0.99115 -0.60131,0.23755 -1.31042,0.35657 -2.127,0.35657 -0.83143,0 -1.57742,-0.12639 -2.23811,-0.37879 -0.65327,-0.25982 -1.17648,-0.64242 -1.56993,-1.14721 -0.38599,-0.51222 -0.60481,-1.15051 -0.65681,-1.91513 h -4.66586 c 0.0371,1.64059 0.43447,3.018 1.19166,4.13153 0.76462,1.1061 1.8258,1.94109 3.1843,2.50527 1.36592,0.56419 2.96953,0.84595 4.81056,0.84595 1.85587,0 3.44079,-0.27834 4.75475,-0.8351 1.32138,-0.56419 2.33094,-1.35441 3.02875,-2.37143 0.70525,-1.02444 1.06219,-2.23466 1.06919,-3.63027 -0.007,-0.95021 -0.182,-1.79256 -0.52348,-2.52749 -0.33406,-0.73492 -0.80566,-1.37373 -1.41439,-1.91565 -0.60873,-0.54191 -1.32864,-0.99825 -2.16007,-1.36942 -0.83143,-0.37117 -1.74462,-0.66819 -2.73937,-0.8909 l -2.04845,-0.4899 c -0.49737,-0.11135 -0.96555,-0.24512 -1.40354,-0.40101 -0.43799,-0.16332 -0.82402,-0.35264 -1.15806,-0.56792 -0.33406,-0.22271 -0.59713,-0.48629 -0.79014,-0.79065 -0.18561,-0.30437 -0.27121,-0.66038 -0.25631,-1.06867 0,-0.48995 0.14114,-0.92811 0.42323,-1.31413 0.28951,-0.38602 0.70504,-0.68647 1.24695,-0.90175 0.54191,-0.22271 1.20627,-0.33435 1.99316,-0.33435 1.15806,0 2.0752,0.24884 2.75074,0.74621 0.67553,0.49737 1.0576,1.19517 1.1467,2.09341 h 4.6209 c -0.0223,-1.35849 -0.38566,-2.55344 -1.09089,-3.58531 -0.70523,-1.03187 -1.69267,-1.83736 -2.96209,-2.41639 -1.26199,-0.57903 -2.73922,-0.86868 -4.43177,-0.86868 z m 37.64963,27.61679 c -1.66286,0 -3.14746,0.28965 -4.45399,0.86868 -1.30653,0.57903 -2.3348,1.38452 -3.08456,2.41639 -0.74233,1.03187 -1.10926,2.23813 -1.10226,3.6189 -0.007,1.68513 0.54528,3.02516 1.65881,4.01991 1.11352,0.99475 2.63157,1.72548 4.55424,2.19315 l 2.48357,0.62373 c 0.83143,0.20043 1.53266,0.42321 2.10427,0.66818 0.57903,0.24497 1.01719,0.54199 1.31413,0.8909 0.30436,0.3489 0.4563,0.77916 0.4563,1.29139 0,0.54933 -0.16668,1.03569 -0.50074,1.45883 -0.33405,0.42314 -0.80566,0.7536 -1.41439,0.99115 -0.6013,0.23755 -1.31041,0.35657 -2.127,0.35657 -0.83143,0 -1.57741,-0.12639 -2.2381,-0.37879 -0.65327,-0.25982 -1.17648,-0.64242 -1.56993,-1.14721 -0.38605,-0.51222 -0.60491,-1.15051 -0.65681,-1.91513 h -4.66587 c 0.0371,1.64059 0.43447,3.018 1.19166,4.13153 0.76462,1.1061 1.8258,1.94109 3.1843,2.50527 1.36592,0.56419 2.96953,0.84595 4.81056,0.84595 1.85587,0 3.4408,-0.27834 4.75475,-0.8351 1.32138,-0.56419 2.33095,-1.35441 3.02876,-2.37143 0.70525,-1.02444 1.06218,-2.23466 1.06918,-3.63027 -0.007,-0.95021 -0.182,-1.79256 -0.52348,-2.52749 -0.33406,-0.73492 -0.80565,-1.37373 -1.41438,-1.91565 -0.60872,-0.54191 -1.32865,-0.99825 -2.16008,-1.36942 -0.83143,-0.37117 -1.74462,-0.66819 -2.73937,-0.8909 l -2.04845,-0.4899 c -0.49737,-0.11135 -0.96554,-0.24512 -1.40353,-0.40101 -0.43798,-0.16332 -0.82401,-0.35264 -1.15807,-0.56792 -0.33406,-0.22271 -0.59712,-0.48629 -0.79013,-0.79065 -0.18561,-0.30437 -0.27122,-0.66038 -0.25632,-1.06867 0,-0.48995 0.14114,-0.92811 0.42323,-1.31413 0.28951,-0.38602 0.70504,-0.68647 1.24695,-0.90175 0.54191,-0.22271 1.20627,-0.33435 1.99316,-0.33435 1.15806,0 2.0752,0.24884 2.75074,0.74621 0.67554,0.49737 1.0576,1.19517 1.1467,2.09341 h 4.62091 c -0.0223,-1.35849 -0.38566,-2.55344 -1.09089,-3.58531 -0.70523,-1.03187 -1.69268,-1.83736 -2.9621,-2.41639 -1.26198,-0.57903 -2.73921,-0.86868 -4.43177,-0.86868 z m -25.62349,-27.30518 v 5.10171 h 4.82141 v -5.10171 z m 8.79688,0 v 10.7123 h 4.67671 l -0.0677,-4.49563 h 0.18913 l 6.16087,6.48591 h 3.18482 l 5.64255,-6.4301 h 0.18913 l 0.0677,16.53284 h 4.67672 v -22.80532 h -5.94589 l -6.08904,6.81715 h -0.26717 l -6.47195,-6.81715 z m -29.10779,28.00185 v 22.80532 h 4.82141 v -7.39386 h 4.0535 c 1.75194,0 3.24392,-0.32308 4.47621,-0.96893 1.23973,-0.64584 2.18635,-1.54771 2.83962,-2.70578 0.65327,-1.15806 0.97978,-2.49415 0.97978,-4.00854 0,-1.51439 -0.32256,-2.851 -0.96841,-4.00906 -0.63842,-1.16549 -1.56636,-2.07473 -2.78381,-2.728 -1.21745,-0.66069 -2.69125,-0.99115 -4.42092,-0.99115 z m 20.3109,-20.40645 v 35.2164 c 0,1.66286 0.3934,3.11797 1.18029,4.3651 2.76741,4.3861 8.21501,4.54541 11.08294,0 0.79431,-1.24713 1.19114,-2.70224 1.19114,-4.3651 v -29.38752 h -4.82141 v 28.97566 c 0,0.86854 -0.19326,1.64059 -0.57929,2.31613 -0.37859,0.67553 -0.91656,1.20612 -1.61437,1.59215 -0.74953,0.41908 1.46306,0.49084 0.57578,0 -0.69781,-0.38603 -1.23972,-0.91662 -1.62574,-1.59215 -0.37859,-0.67554 -0.56793,-1.44759 -0.56793,-2.31613 v -34.80454 z m -15.48949,24.34833 h 3.25148 c 0.93536,0 1.70742,0.15983 2.31614,0.47904 0.60872,0.31179 1.06163,0.75337 1.35857,1.32498 0.30437,0.56419 0.45682,1.22512 0.45682,1.98231 0,0.74977 -0.15245,1.41413 -0.45682,1.99316 -0.29694,0.57161 -0.74985,1.02057 -1.35857,1.3472 -0.6013,0.31921 -1.36548,0.47904 -2.29341,0.47904 h -3.27421 z"
         sodipodi:nodetypes="ssccsccccsscsccccccsccccssccccccccssccscsssccsccccsscsccccccsccccssccccccccssccscsccccccccccccccccccccccccccscssccsccsscsccsccscscccsccsccscc" /></g><g
       id="g3"
       transform="translate(82.447764,125.89704)"
       style="fill:#2e3436"><text
         xml:space="preserve"
         style="font-weight:300;font-size:51.6739px;line-height:1.3;font-family:Oswald;-inkscape-font-specification:'Oswald Light';text-align:center;letter-spacing:0px;text-anchor:middle;fill:#2e3436;stroke-width:14.5333;stroke-linecap:square"
         x="112.23593"
         y="468.4339"
         id="text1"><tspan
           sodipodi:role="line"
           id="tspan1"
           style="font-style:normal;font-variant:normal;font-weight:bold;font-stretch:normal;font-family:Lexend;-inkscape-font-specification:'Lexend Bold';fill:#2e3436;stroke-width:14.5333"
           x="112.23593"
           y="468.4339">Pusaku</tspan></text><text
         xml:space="preserve"
         style="font-style:normal;font-variant:normal;font-weight:bold;font-stretch:normal;font-size:11.3714px;line-height:1.3;font-family:Lexend;-inkscape-font-specification:'Lexend Bold';text-align:center;letter-spacing:0px;text-anchor:middle;fill:#2e3436;fill-opacity:1;stroke-width:6.39643;stroke-linecap:square"
         x="112.84728"
         y="486.32516"
         id="text2"><tspan
           sodipodi:role="line"
           id="tspan2"
           style="font-style:normal;font-variant:normal;font-weight:normal;font-stretch:normal;font-size:11.3714px;font-family:Lexend;-inkscape-font-specification:Lexend;fill:#2e3436;fill-opacity:1;stroke-width:6.39643"
           x="112.84728"
           y="486.32516">Pusat Informasi dan Koleksi Buku</tspan></text></g></g></svg>
